<?xml version="1.0" encoding="utf-8"?>
<!-- Generator: Adobe Illustrator 24.2.0, SVG Export Plug-In . SVG Version: 6.00 Build 0)  -->
<svg version="1.1" id="Layer_1" xmlns="http://www.w3.org/2000/svg" xmlns:xlink="http://www.w3.org/1999/xlink" x="0px" y="0px"
	 viewBox="0 0 1000 1000" style="enable-background:new 0 0 1000 1000;" xml:space="preserve">
<style type="text/css">
	.st0{fill:#F15F22;}
	.st1{fill:#0E763E;}
</style>
<g transform="matrix(2.08639 0 0 2.08639 3614.82 604.858)">
	<path class="st0" d="M-1477.7-106.3h-21.1c-11.4,0-20.6,8.2-20.6,18.3v25.3c0,10.1,9.2,18.4,20.6,18.4h21.1
		c11.4,0,20.6-8.2,20.6-18.4v-16.2h-31.9v8.5c0,0.8,0.6,1.4,1.4,1.4h17.5v11.7c0,0.8-0.6,1.4-1.4,1.4h-33.4c-0.8,0-1.4-0.6-1.4-1.4
		v-36.2c0-0.8,0.6-1.5,1.4-1.5h33.4c0.8,0,1.4,0.6,1.4,1.5v6.9c0,0.8,0.6,1.4,1.4,1.4h10.1c0.8,0,1.4-0.6,1.4-1.4v-1.5
		C-1457-98.1-1466.3-106.3-1477.7-106.3 M-1303.5-105.5h-9.1c-0.8,0-1.4,0.6-1.4,1.4v41.6c-4.8-5.4-36.3-41.1-37.1-42
		c-0.9-0.9-2-1.1-2.7-1.1h-9c-0.8,0-1.4,0.6-1.4,1.4v57.5c0,0.8,0.7,1.4,1.4,1.4h9.1c0.8,0,1.4-0.6,1.4-1.4v-42
		c3.4,3.9,36.6,41.5,37.4,42.3c0.9,0.9,2,1.1,2.7,1.1h8.7c0.8,0,1.5-0.6,1.5-1.4V-104C-1302-104.8-1302.7-105.5-1303.5-105.5
		 M-1398.9-103.9c-0.6-1-1.5-1.7-2.6-1.7h-9c-1.1,0-2,0.7-2.6,1.7l-28.4,55.9c-1,1.8-0.2,2.9,1.5,2.9h9c1.3,0,1.8-0.3,2.5-1.6
		l22.5-45l22.5,45c0.6,1.3,1.2,1.6,2.5,1.6h9c1.7,0,2.5-1.1,1.5-2.9L-1398.9-103.9z M-1530.5-105.5h-9.1c-0.8,0-1.4,0.6-1.4,1.4
		v41.6c-4.8-5.4-36.3-41.1-37.1-42c-0.9-0.9-2-1.1-2.7-1.1h-9.1c-0.8,0-1.4,0.6-1.4,1.4v57.5c0,0.8,0.6,1.4,1.4,1.4h9.1
		c0.8,0,1.4-0.6,1.4-1.4v-42c3.5,3.9,36.6,41.5,37.4,42.3c0.8,0.9,2,1.1,2.7,1.1h8.7c0.8,0,1.4-0.6,1.4-1.4V-104
		C-1529-104.8-1529.7-105.5-1530.5-105.5 M-1638.4-75.6c0,0.8-0.7,1.4-1.5,1.4h-30.9v-20.7h30.9c0.8,0,1.5,0.6,1.5,1.4V-75.6z
		 M-1645.3-105.5h-37.2c-0.8,0-1.4,0.6-1.4,1.4v57.5c0,0.8,0.6,1.4,1.4,1.4h10.3c0.8,0,1.4-0.6,1.4-1.4v-17h25.4
		c11.4,0,20.6-6.7,20.6-16.9v-6.7C-1624.6-97.2-1633.9-105.5-1645.3-105.5 M-1604.2-105.5h-10.2c-0.8,0-1.4,0.6-1.4,1.4v57.5
		c0,0.8,0.6,1.4,1.4,1.4h10.2c0.8,0,1.5-0.6,1.5-1.4V-104C-1602.7-104.8-1603.4-105.5-1604.2-105.5"/>
	<path class="st1" d="M-1398.2-63.2h-15.5c-0.8,0-1.5,0.6-1.5,1.4v15.2c0,0.8,0.7,1.4,1.5,1.4h15.5c0.8,0,1.4-0.7,1.4-1.4v-15.2
		C-1396.8-62.5-1397.4-63.2-1398.2-63.2"/>
	<path class="st0" d="M-1379.2,5.4c-0.4-0.2-0.9-0.5-0.9-1.2c0-0.7,0.6-1.2,1.2-1.2c0.2,0,0.4,0.1,0.5,0.1c0.3,0.1,0.6,0.2,1,0.2
		c0.9,0,1.3-0.4,1.8-1.3l0.1-0.3l-4.7-10.5c-0.1-0.2-0.2-0.5-0.2-0.7c0-0.8,0.6-1.4,1.4-1.4c0.7,0,1.2,0.4,1.4,1.1l3.4,8.4l3.2-8.4
		c0.2-0.6,0.6-1.1,1.4-1.1c0.8,0,1.4,0.6,1.4,1.4c0,0.2-0.1,0.5-0.1,0.7l-4.6,11.1c-1.1,2.6-2.2,3.6-4.3,3.6
		C-1378,5.8-1378.6,5.6-1379.2,5.4L-1379.2,5.4z M-1394.9,4.6c-0.5-0.2-0.8-0.6-0.8-1.2c0-0.6,0.6-1.2,1.2-1.2c0.2,0,0.4,0,0.5,0.1
		c1.2,0.6,2.4,1,3.9,1c2.6,0,4-1.3,4-3.9v-1c-1,1.4-2.4,2.3-4.5,2.3c-3,0-5.8-2.2-5.8-5.9v0c0-3.7,2.8-6,5.8-6c2.1,0,3.5,1,4.4,2.2
		v-0.6c0-0.8,0.6-1.4,1.4-1.4c0.8,0,1.5,0.6,1.5,1.5v8.8c0,2.1-0.6,3.7-1.6,4.8c-1.2,1.2-2.9,1.7-5.2,1.7
		C-1391.8,5.8-1393.4,5.4-1394.9,4.6L-1394.9,4.6z M-1532.3,2.3c-3.7,0-6.5-2.7-6.5-6.6v0c0-3.6,2.6-6.6,6.2-6.6c4,0,6,3.3,6,6.2
		c0,0.8-0.6,1.4-1.4,1.4h-7.9c0.3,2.1,1.8,3.2,3.6,3.2c1.2,0,2.2-0.4,3-1.1c0.2-0.2,0.4-0.3,0.7-0.3c0.6,0,1.1,0.5,1.1,1.2
		c0,0.4-0.2,0.7-0.4,0.9C-1528.9,1.7-1530.4,2.3-1532.3,2.3L-1532.3,2.3z M-1552.2-4.2L-1552.2-4.2c0-3.7,2.8-6.7,6.6-6.7
		c2,0,3.4,0.7,4.4,1.6c0.2,0.2,0.5,0.5,0.5,1c0,0.8-0.6,1.3-1.3,1.3c-0.4,0-0.7-0.1-0.9-0.3c-0.7-0.6-1.6-1.1-2.7-1.1
		c-2.1,0-3.7,1.8-3.7,4v0c0,2.3,1.6,4.1,3.8,4.1c1.2,0,2-0.5,2.8-1.1c0.2-0.2,0.4-0.3,0.8-0.3c0.7,0,1.2,0.6,1.2,1.3
		c0,0.4-0.1,0.7-0.4,0.9c-1.1,1.1-2.5,1.8-4.6,1.8C-1549.4,2.3-1552.2-0.6-1552.2-4.2z M-1581.3-1.6L-1581.3-1.6
		c0-2.8,2.1-4.1,5.2-4.1c1.4,0,2.4,0.2,3.4,0.5v-0.3c0-1.8-1.1-2.8-3.1-2.8c-1.1,0-2,0.2-2.8,0.5c-0.2,0.1-0.3,0.1-0.5,0.1
		c-0.7,0-1.2-0.5-1.2-1.2c0-0.5,0.4-1,0.8-1.1c1.2-0.5,2.4-0.7,4.1-0.7c1.9,0,3.3,0.5,4.2,1.4c0.9,0.9,1.4,2.3,1.4,3.9v6.2
		c0,0.8-0.6,1.4-1.4,1.4c-0.8,0-1.4-0.6-1.4-1.2V0.5c-0.9,1-2.2,1.9-4.1,1.9C-1579.2,2.3-1581.3,0.9-1581.3-1.6L-1581.3-1.6z
		 M-1617.7-13.3c0-0.8,0.6-1.5,1.5-1.5h9.8c0.7,0,1.3,0.6,1.3,1.3c0,0.7-0.6,1.3-1.3,1.3h-8.3v4.6h7.3c0.7,0,1.3,0.6,1.3,1.3
		c0,0.7-0.6,1.3-1.3,1.3h-7.3v5.5c0,0.8-0.6,1.5-1.5,1.5c-0.8,0-1.5-0.7-1.5-1.5V-13.3z M-1602.1-9.3c0-0.8,0.6-1.5,1.4-1.5
		s1.5,0.6,1.5,1.5v10c0,0.8-0.6,1.4-1.5,1.4c-0.8,0-1.4-0.6-1.4-1.4V-9.3z M-1566.4-9.3c0-0.8,0.6-1.5,1.4-1.5
		c0.8,0,1.5,0.6,1.5,1.5v0.6c0.8-1.2,2-2.2,4-2.2c2.9,0,4.5,1.9,4.5,4.9v6.8c0,0.8-0.6,1.4-1.4,1.4s-1.5-0.6-1.5-1.4v-5.9
		c0-2-1-3.1-2.7-3.1c-1.7,0-2.9,1.2-2.9,3.1v5.8c0,0.8-0.6,1.4-1.5,1.4c-0.8,0-1.4-0.6-1.4-1.4V-9.3z M-1595.4-9.3
		c0-0.8,0.6-1.5,1.4-1.5c0.8,0,1.5,0.6,1.5,1.5v0.6c0.8-1.2,2-2.2,4-2.2c2.9,0,4.5,1.9,4.5,4.9v6.8c0,0.8-0.6,1.4-1.4,1.4
		s-1.5-0.6-1.5-1.4v-5.9c0-2-1-3.1-2.7-3.1c-1.7,0-2.9,1.2-2.9,3.1v5.8c0,0.8-0.6,1.4-1.5,1.4c-0.8,0-1.4-0.6-1.4-1.4V-9.3z
		 M-1486.2,2.1c-3.7,0-6.5-2.7-6.5-6.6v0c0-3.6,2.6-6.6,6.2-6.6c4,0,6,3.3,6,6.2c0,0.8-0.6,1.4-1.4,1.4h-7.9
		c0.3,2.1,1.8,3.2,3.6,3.2c1.2,0,2.2-0.4,3-1.1c0.2-0.2,0.4-0.3,0.8-0.3c0.6,0,1.2,0.5,1.2,1.2c0,0.4-0.2,0.7-0.4,0.9
		C-1482.8,1.5-1484.3,2.1-1486.2,2.1z M-1412.1-4.4L-1412.1-4.4c0-3.7,2.9-6.7,6.8-6.7c3.9,0,6.7,3,6.7,6.6v0c0,3.6-2.9,6.6-6.8,6.6
		C-1409.3,2.1-1412.1-0.8-1412.1-4.4L-1412.1-4.4z M-1434.7-4.4L-1434.7-4.4c0-3.7,2.9-6.7,6.8-6.7c3.9,0,6.7,3,6.7,6.6v0
		c0,3.6-2.9,6.6-6.8,6.6C-1431.9,2.1-1434.7-0.8-1434.7-4.4z M-1478.2-4.4L-1478.2-4.4c0-3.6,2.8-6.7,6.6-6.7c2,0,3.4,0.6,4.4,1.6
		c0.2,0.2,0.5,0.5,0.5,1c0,0.7-0.6,1.3-1.3,1.3c-0.4,0-0.7-0.2-0.9-0.3c-0.8-0.6-1.6-1.1-2.7-1.1c-2.1,0-3.7,1.8-3.7,4v0
		c0,2.3,1.6,4.1,3.8,4.1c1.2,0,2-0.4,2.8-1.1c0.2-0.1,0.4-0.3,0.8-0.3c0.7,0,1.2,0.6,1.2,1.3c0,0.4-0.2,0.7-0.4,0.9
		c-1.1,1.1-2.5,1.8-4.6,1.8C-1475.4,2.1-1478.2-0.8-1478.2-4.4L-1478.2-4.4z M-1418.1-14.3c0-0.8,0.6-1.4,1.4-1.4
		c0.8,0,1.5,0.6,1.5,1.4V0.5c0,0.8-0.7,1.4-1.5,1.4c-0.8,0-1.4-0.6-1.4-1.4V-14.3z M-1463.8-14.3c0-0.8,0.6-1.4,1.4-1.4
		s1.5,0.6,1.5,1.4v5.5c0.8-1.2,2-2.2,4-2.2c2.9,0,4.5,1.9,4.5,4.9v6.8c0,0.8-0.6,1.4-1.4,1.4c-0.8,0-1.5-0.6-1.5-1.4v-5.9
		c0-2-1-3.1-2.7-3.1c-1.7,0-2.9,1.2-2.9,3.1v5.8c0,0.8-0.6,1.4-1.5,1.4c-0.8,0-1.4-0.6-1.4-1.4V-14.3z M-1448.9-9.5
		c0-0.8,0.6-1.5,1.4-1.5s1.5,0.6,1.5,1.5v0.6c0.8-1.2,2-2.2,4-2.2c2.9,0,4.5,1.9,4.5,4.9v6.8c0,0.8-0.6,1.4-1.4,1.4
		c-0.8,0-1.5-0.6-1.5-1.4v-5.9c0-2-1-3.1-2.7-3.1c-1.7,0-2.9,1.2-2.9,3.1v5.8c0,0.8-0.6,1.4-1.5,1.4c-0.8,0-1.4-0.6-1.4-1.4V-9.5z
		 M-1497.4-12.2V0.5c0,0.8-0.7,1.5-1.5,1.5s-1.5-0.6-1.5-1.5v-12.7h-4.1c-0.8,0-1.4-0.6-1.4-1.4c0-0.8,0.6-1.4,1.4-1.4h11.2
		c0.7,0,1.3,0.6,1.3,1.4c0,0.7-0.6,1.4-1.3,1.4H-1497.4z M-1575.5-3.9c-1.9,0-3,0.8-3,2.1v0c0,1.2,1.1,1.9,2.5,1.9
		c1.9,0,3.4-1.1,3.4-2.7v-0.9C-1573.4-3.7-1574.4-3.9-1575.5-3.9L-1575.5-3.9z M-1424.1-4.4L-1424.1-4.4c0-2.3-1.6-4.1-3.9-4.1
		c-2.3,0-3.8,1.8-3.8,4v0c0,2.2,1.6,4.1,3.9,4.1C-1425.6-0.4-1424.1-2.2-1424.1-4.4z M-1401.5-4.4L-1401.5-4.4
		c0-2.3-1.6-4.1-3.9-4.1c-2.3,0-3.8,1.8-3.8,4v0c0,2.2,1.6,4.1,3.9,4.1C-1403-0.4-1401.5-2.2-1401.5-4.4z M-1386-5.1L-1386-5.1
		c0-2.1-1.7-3.5-3.7-3.5c-2,0-3.6,1.4-3.6,3.5v0c0,2.1,1.6,3.5,3.6,3.5C-1387.7-1.6-1386-3-1386-5.1z M-1515.7-4.4L-1515.7-4.4
		c0-1.2,1-2.2,2.2-2.2c1.2,0,2.2,1,2.2,2.2v0c0,1.2-1,2.2-2.2,2.2C-1514.7-2.2-1515.7-3.2-1515.7-4.4z M-1529.5-5.2
		c-0.2-1.9-1.3-3.3-3.2-3.3c-1.8,0-3,1.4-3.3,3.3H-1529.5z M-1483.3-5.4c-0.2-1.9-1.3-3.3-3.2-3.3c-1.8,0-3,1.4-3.3,3.3H-1483.3z
		 M-1602.3-14c0-0.9,0.7-1.4,1.7-1.4c0.9,0,1.7,0.6,1.7,1.4v0.1c0,0.9-0.7,1.4-1.7,1.4c-0.9,0-1.7-0.6-1.7-1.4V-14z"/>
</g>
</svg>
